# xmcd
#
# Track frame offsets: 
#        150
#        14947
#        30657
#        46633
#        62354
#        78367
#        94933
#        110937
#        125750
#        141241
#        156026
#        170218
#        184715
#        199077
#        211646
#        226235
#        240149
#        253557
#        267981
#        281923
#        296366
#        310168
#
# Disc length: 4321 seconds
#
# Revision: 0
# Processed by: cddbd v1.5.2PL0 Copyright (c) Steve Scherf et al.
# Submitted via: ExactAudioCopy v1.0b3
#
DISCID=3a10df16
DTITLE=Elder J. E. Burch and Rev. Beaumont - Complete Recorded Works In 
DTITLE=Chronological Order 1927-1929
DYEAR=1995
DGENRE=Gospel
TTITLE0=Elder J. E. Burch - God's Dwelling Place
TTITLE1=Elder J. E. Burch - Baptism By Water, And Baptism By The Holy 
TTITLE1=Ghost
TTITLE2=Elder J. E. Burch - Will You Obey God?
TTITLE3=Elder J. E. Burch - The Church And The Kingdom (take 1)
TTITLE4=Elder J. E. Burch - The Church And The Kingdom (take 2)
TTITLE5=Elder J. E. Burch - Wash You, Make You Clean (take 1)
TTITLE6=Elder J. E. Burch - Wash You, Make You Clean (take 2)
TTITLE7=Elder J. E. Burch - Life And Death
TTITLE8=Elder J. E. Burch - The Prayer Service
TTITLE9=Elder J. E. Burch - Love Is My Wonderful Song
TTITLE10=Elder J. E. Burch - My Heart Keeps Singing
TTITLE11=Rev. Beaumont - Noah Built The Ark - Part 1
TTITLE12=Rev. Beaumont - Noah Built The Ark - Part 2
TTITLE13=Rev. Beaumont - Crossing The Red Sea
TTITLE14=Rev. Beaumont - God Met The Devil At The Church
TTITLE15=Rev. Beaumont - The Blind Man
TTITLE16=Rev. Beaumont - He Is Risen
TTITLE17=Rev. Beaumont - Lazarus Raised From The Dead
TTITLE18=Rev. Beaumont - Wake Up
TTITLE19=Rev. Beaumont - God Will Provide
TTITLE20=Rev. Beaumont - Speak, Lord, Thy Servant Heareth
TTITLE21=Rev. Beaumont - In Hell He Lifteth Up His Eyes
EXTD=
EXTT0=
EXTT1=
EXTT2=
EXTT3=
EXTT4=
EXTT5=
EXTT6=
EXTT7=
EXTT8=
EXTT9=
EXTT10=
EXTT11=
EXTT12=
EXTT13=
EXTT14=
EXTT15=
EXTT16=
EXTT17=
EXTT18=
EXTT19=
EXTT20=
EXTT21=
PLAYORDER=
